<svg width="32" height="32" viewBox="0 0 32 32" fill="none" xmlns="http://www.w3.org/2000/svg">
<g clip-path="url(#clip0)">
<path d="M11.5419 25.7292C11.3194 25.7706 11.2222 25.875 11.2501 26.0416C11.2778 26.2082 11.4028 26.2638 11.625 26.2082C11.8475 26.1527 11.9446 26.0553 11.9167 25.9165C11.8891 25.7638 11.7641 25.7012 11.5419 25.7292Z" fill="black"/>
<path d="M10.3543 25.896C10.132 25.896 10.021 25.9719 10.021 26.125C10.021 26.3056 10.1391 26.3817 10.3751 26.354C10.5974 26.354 10.7086 26.2776 10.7086 26.125C10.7086 25.9447 10.5904 25.868 10.3543 25.896Z" fill="black"/>
<path d="M8.72932 25.833C8.67387 25.9859 8.7642 26.0898 9.00011 26.1456C9.20844 26.2286 9.34044 26.1871 9.3959 26.0205C9.43764 25.868 9.3473 25.7571 9.12511 25.6872C8.91671 25.6318 8.78485 25.6798 8.72932 25.833Z" fill="black"/>
<path d="M30.2395 1.76026C29.0659 0.586825 27.653 0 25.9999 0H5.99996C4.34734 0 2.93398 0.586825 1.76026 1.76026C0.586825 2.9339 0 4.34726 0 5.99996V26.0002C0 27.6529 0.586825 29.0661 1.76026 30.2396C2.93391 31.4132 4.34734 32 5.99996 32H10.6666C10.9719 32 11.2013 31.9895 11.354 31.9691C11.5066 31.9481 11.6593 31.8578 11.8122 31.6979C11.9651 31.5383 12.0413 31.3056 12.0413 31.0001C12.0413 30.9587 12.0377 30.486 12.0308 29.5833C12.0237 28.6803 12.0203 27.9651 12.0203 27.4372L11.5411 27.5206C11.2356 27.5761 10.8501 27.6005 10.3848 27.5935C9.9197 27.5865 9.43693 27.5381 8.93701 27.4477C8.4368 27.3573 7.97169 27.1491 7.54109 26.823C7.11071 26.4963 6.80519 26.0693 6.62459 25.5417L6.41618 25.0622C6.27732 24.7431 6.0587 24.3888 5.76004 24.0002C5.46137 23.6111 5.15935 23.3472 4.85382 23.2083L4.70796 23.1041C4.61083 23.0347 4.52057 22.951 4.43716 22.8539C4.3539 22.7565 4.29144 22.6592 4.24978 22.5623C4.20811 22.4648 4.2427 22.3849 4.3539 22.3223C4.46511 22.2599 4.66629 22.2289 4.9581 22.2289L5.37461 22.2913C5.65248 22.3468 5.99602 22.5133 6.40597 22.7912C6.81562 23.069 7.15238 23.43 7.41631 23.8743C7.73592 24.4439 8.12098 24.8777 8.5726 25.1763C9.02384 25.4753 9.47881 25.6246 9.93706 25.6246C10.3953 25.6246 10.7911 25.5898 11.1246 25.5207C11.4577 25.4511 11.7702 25.3466 12.062 25.2078C12.187 24.2773 12.5274 23.5616 13.0827 23.0617C12.2912 22.9783 11.5794 22.8535 10.9473 22.6867C10.3155 22.5199 9.66262 22.2492 8.98911 21.8741C8.3153 21.499 7.75635 21.034 7.31189 20.4782C6.8675 19.9223 6.5028 19.1932 6.21829 18.2907C5.93363 17.3877 5.79127 16.3459 5.79127 15.1654C5.79127 13.485 6.34008 12.0542 7.43725 10.8738C6.92325 9.60993 6.97178 8.19344 7.58298 6.62385C7.98577 6.49878 8.5831 6.59262 9.37468 6.90515C10.1664 7.2179 10.7461 7.48534 11.1143 7.70724C11.4825 7.92921 11.7775 8.11689 11.9998 8.26984C13.2917 7.90871 14.625 7.72818 15.9999 7.72818C17.3747 7.72818 18.7081 7.90871 20.0001 8.26984L20.7918 7.76985C21.3337 7.43637 21.9725 7.13085 22.7086 6.8532C23.4448 6.57547 24.0072 6.499 24.3962 6.62407C25.021 8.19366 25.0769 9.61015 24.5625 10.8739C25.6597 12.0545 26.2087 13.4852 26.2087 15.1656C26.2087 16.3463 26.0663 17.3916 25.7816 18.3011C25.4972 19.2108 25.1294 19.9402 24.6776 20.4888C24.2264 21.0375 23.6638 21.4989 22.9902 21.8742C22.3166 22.2491 21.6638 22.5202 21.0317 22.6865C20.3997 22.8533 19.6881 22.9787 18.8964 23.0621C19.6181 23.6869 19.9792 24.6727 19.9792 26.0202V30.9995C19.9792 31.2357 20.0136 31.4265 20.0831 31.5724C20.153 31.7182 20.2639 31.8186 20.4167 31.8745C20.57 31.93 20.7048 31.9647 20.8232 31.9784C20.9415 31.9924 21.1113 31.9994 21.3336 31.9994H26.0003C27.6529 31.9994 29.0663 31.4126 30.2395 30.2389C31.4131 29.0653 31.9999 27.6518 31.9999 25.9992V5.99996C31.9998 4.34726 31.413 2.93369 30.2395 1.76026Z" fill="black"/>
<path d="M6.33329 23.2917C6.23617 23.3608 6.25003 23.472 6.37503 23.6248C6.51411 23.7636 6.6251 23.7845 6.7085 23.6872C6.80562 23.618 6.79176 23.5069 6.66654 23.3538C6.52776 23.229 6.4167 23.2081 6.33329 23.2917Z" fill="black"/>
<path d="M5.64598 22.7708C5.60438 22.8682 5.65298 22.9516 5.79184 23.0208C5.90283 23.0905 5.99339 23.0768 6.06264 22.9794C6.10423 22.8819 6.05563 22.7985 5.91677 22.7289C5.77791 22.6871 5.68764 22.7011 5.64598 22.7708Z" fill="black"/>
<path d="M6.9793 24.1043C6.85415 24.1734 6.85415 24.2988 6.9793 24.4791C7.10429 24.66 7.22214 24.7084 7.33342 24.6249C7.45849 24.5276 7.45849 24.3956 7.33342 24.2289C7.22243 24.0488 7.10429 24.0066 6.9793 24.1043Z" fill="black"/>
<path d="M7.70865 25.0414C7.58358 25.1528 7.61116 25.2842 7.79198 25.4375C7.95842 25.6038 8.09736 25.6248 8.20849 25.4995C8.31969 25.3886 8.29189 25.2568 8.12516 25.104C7.95872 24.9376 7.81978 24.9166 7.70865 25.0414Z" fill="black"/>
</g>
<defs>
<clipPath id="clip0">
<rect width="32" height="32" fill="white"/>
</clipPath>
</defs>
</svg>
